 <svg xmlns="http://www.w3.org/2000/svg" width="28" height="28" viewBox="0 0 28 28"><g fill="none" fill-rule="evenodd"><rect width="28" height="28"/><g fill-rule="nonzero" transform="translate(0 2)"><path fill="#007AFF" d="M3.20928511,14.4668555 C3.3931504,14.4668555 3.55612191,14.3623866 3.69819963,14.1534488 L6.24306243,10.5304668 C6.36006762,10.371674 6.41857021,10.2233281 6.41857021,10.0854292 C6.41857021,9.9475302 6.36842513,9.83679315 6.26813497,9.75321802 C6.16784481,9.66964288 6.01740957,9.62785532 5.81682925,9.62785532 L3.70014526,9.62821636 C3.83674715,8.94474895 4.04085768,8.28647443 4.31247686,7.6533928 C4.85571522,6.38722954 5.6099808,5.27359089 6.57527359,4.31247686 C7.54056637,3.35136283 8.6562944,2.59918663 9.92245766,2.05594827 C11.1886209,1.51270991 12.5488062,1.24109072 14.0030135,1.24109072 C15.2399255,1.24109072 16.4141561,1.4458498 17.5257054,1.85536795 C18.6372546,2.2648861 19.644335,2.83528639 20.5469464,3.5665688 C21.4495579,4.29785121 22.2142703,5.14822819 22.8410838,6.11769973 C22.9497315,6.26813497 23.0855411,6.36633575 23.2485126,6.41230208 C23.4114841,6.4582684 23.5681875,6.43528524 23.7186227,6.34335259 C23.8607005,6.25977746 23.9505437,6.130236 23.9881525,5.95472822 C24.0257613,5.77922044 23.9860632,5.61207018 23.869058,5.45327743 C23.1335968,4.37515821 22.262326,3.42866983 21.2552457,2.61381228 C20.2481653,1.79895474 19.1303479,1.15960497 17.9017935,0.695762982 C16.673239,0.231920994 15.3736457,0 14.0030135,0 C12.3900135,0 10.8752142,0.305049235 9.45861567,0.915147706 C8.04201717,1.52524618 6.79465831,2.36935502 5.71653909,3.44747423 C4.63841988,4.52559345 3.79222166,5.77295231 3.17794443,7.18955081 C2.85032991,7.94507001 2.61007926,8.72852188 2.45719248,9.53990642 L2.44146364,9.62821636 L0.601740957,9.62785532 C0.409518151,9.62785532 0.26117229,9.66964288 0.156703374,9.75321802 C0.0522344581,9.83679315 0,9.9475302 0,10.0854292 C0,10.2233281 0.0626813497,10.3758528 0.188044049,10.543003 L2.72037058,14.1534488 C2.8624483,14.3623866 3.02541981,14.4668555 3.20928511,14.4668555 Z M14.0030135,23.4929699 C15.6076561,23.4929699 17.120366,23.1858313 18.5411432,22.571554 C19.9619205,21.9572768 21.2113687,21.1089892 22.289488,20.0266912 C23.3676072,18.9443933 24.2138054,17.6970344 24.8280826,16.2846147 C25.1556971,15.5313241 25.3959478,14.7495066 25.5488346,13.9391621 L25.5656465,13.8400821 L27.3917498,13.840042 C27.5923301,13.840042 27.7448548,13.8003438 27.8493237,13.7209475 C27.9537926,13.6415511 28.0039377,13.5329034 27.9997589,13.3950044 C27.9955802,13.2571055 27.9349882,13.1045808 27.817983,12.9374306 L25.2856565,9.32698484 C25.1435787,9.11804701 24.9806072,9.01357809 24.7967419,9.01357809 C24.6128767,9.01357809 24.4457264,9.11804701 24.2952911,9.32698484 L21.7629646,12.9374306 C21.6459594,13.1045808 21.5874568,13.2571055 21.5874568,13.3950044 C21.5874568,13.5329034 21.6376019,13.6415511 21.7378921,13.7209475 C21.8381822,13.8003438 21.9886175,13.840042 22.1891978,13.840042 L24.3050394,13.8400821 L24.3031263,13.8494442 C24.166272,14.5284922 23.9609906,15.1856017 23.6872821,15.8207727 C23.1398649,17.0911147 22.3855994,18.2089321 21.4244853,19.1742249 C20.4633713,20.1395177 19.3497327,20.8916939 18.0835694,21.4307535 C16.8174061,21.9698131 15.4572208,22.2393429 14.0030135,22.2393429 C12.757744,22.2477004 11.581424,22.0450307 10.4740535,21.6313338 C9.36668303,21.2176369 8.35960267,20.6451472 7.45281248,19.9138648 C6.54602229,19.1825824 5.77922044,18.3280267 5.15240695,17.3501976 C5.04375927,17.1997624 4.91003906,17.103651 4.75124631,17.0618634 C4.59245356,17.0200758 4.43783956,17.0451484 4.28740432,17.137081 C4.13696908,17.2206561 4.04503643,17.3501976 4.01160638,17.5257054 C3.97817633,17.7012132 4.0199639,17.8683634 4.13696908,18.0271562 C4.86407274,19.0969179 5.73325412,20.0434063 6.74451323,20.8666213 C7.75577234,21.6898364 8.87358974,22.3333649 10.0979654,22.7972069 C11.3223411,23.2610489 12.6240238,23.4929699 14.0030135,23.4929699 Z"/><path fill="#5DE08A" d="M17.0367909,16.7735292 C17.1788686,16.673239 17.2561756,16.5478763 17.2687118,16.3974411 C17.2812481,16.2470058 17.2331924,16.0965706 17.1245447,15.9461354 L14.1155591,11.9697108 L14.11584,5.64132147 C14.11584,5.48252872 14.0594267,5.34671913 13.9466003,5.2338927 C13.8337739,5.12106627 13.6979643,5.06465306 13.5391715,5.06465306 C13.3636638,5.06465306 13.2174073,5.12106627 13.1004021,5.2338927 C12.9833969,5.34671913 12.9248943,5.48252872 12.9248943,5.64132147 L12.9248943,12.072428 C12.9248943,12.1894331 12.9436987,12.2918127 12.9813075,12.3795666 C13.0189163,12.4673205 13.0711508,12.5571637 13.1380109,12.6490964 L16.159252,16.6481665 C16.2846147,16.7986017 16.4266924,16.8842662 16.5854851,16.90516 C16.7442779,16.9260538 16.8947131,16.8821769 17.0367909,16.7735292 Z"/></g></g></svg>